# xmcd CD database file
#
# Track frame offsets:
#	150
#	25462
#	54149
#	73480
#	94574
#
# Disc length: 1790 seconds
#
# Revision: 5
# Processed by: cddbd v1.5.1PL2 Copyright (c) Steve Scherf et al.
# Submitted via: CDex 1.51
#
DISCID=3d06fc05
DTITLE=EGO-WRAPPIN' - His Choice of Shoes is ill!
DYEAR=1999
DGENRE=Ska
TTITLE0=セツナイ クダラナイ ムサボル ソノ テ
TTITLE1=アカイ ヌクモリ
TTITLE2=ミスター リッチマン
TTITLE3=アマイ カゲ
TTITLE4=バード
EXTD=YEAR: 1999
EXTT0=
EXTT1=
EXTT2=
EXTT3=
EXTT4=
PLAYORDER=
